<svg width="460" height="136" viewBox="0 0 460 136" fill="none" xmlns="http://www.w3.org/2000/svg">
<rect x="25.5322" y="28.4175" width="50.2588" height="50.2588" rx="25.1294" fill="#F2FDF6"/>
<path d="M55.8963 63.2331H45.4257C42.2845 63.2331 40.1904 61.6625 40.1904 57.9978V50.6684C40.1904 47.0037 42.2845 45.4331 45.4257 45.4331H55.8963C59.0375 45.4331 61.1316 47.0037 61.1316 50.6684V57.9978C61.1316 61.6625 59.0375 63.2331 55.8963 63.2331Z" stroke="#22C55E" stroke-width="1.57059" stroke-miterlimit="10" stroke-linecap="round" stroke-linejoin="round"/>
<path d="M50.6617 57.4738C52.3965 57.4738 53.8029 56.0674 53.8029 54.3326C53.8029 52.5978 52.3965 51.1914 50.6617 51.1914C48.9269 51.1914 47.5205 52.5978 47.5205 54.3326C47.5205 56.0674 48.9269 57.4738 50.6617 57.4738Z" stroke="#22C55E" stroke-width="1.57059" stroke-miterlimit="10" stroke-linecap="round" stroke-linejoin="round"/>
<path d="M43.8564 51.7153V56.9506" stroke="#22C55E" stroke-width="1.57059" stroke-miterlimit="10" stroke-linecap="round" stroke-linejoin="round"/>
<path d="M57.4668 51.7153V56.9506" stroke="#22C55E" stroke-width="1.57059" stroke-miterlimit="10" stroke-linecap="round" stroke-linejoin="round"/>
<path d="M98.8783 46.9761L94.7319 33.4062H97.3705L100.763 44.5637L104.212 33.4062H106.851L102.704 46.9761H98.8783ZM112.356 47.2588C111.331 47.2588 110.433 47.0295 109.66 46.5709C108.888 46.1123 108.285 45.4809 107.851 44.6767C107.424 43.8663 107.21 42.9365 107.21 41.8874C107.21 40.8257 107.43 39.8927 107.87 39.0886C108.31 38.2782 108.916 37.6468 109.689 37.1944C110.461 36.7421 111.35 36.516 112.356 36.516C113.38 36.516 114.278 36.7453 115.051 37.2039C115.83 37.6625 116.436 38.297 116.869 39.1074C117.303 39.9116 117.52 40.8382 117.52 41.8874C117.52 42.9428 117.3 43.8757 116.86 44.6862C116.426 45.4903 115.82 46.1217 115.041 46.5803C114.268 47.0326 113.373 47.2588 112.356 47.2588ZM112.356 44.8652C113.178 44.8652 113.791 44.5888 114.193 44.0359C114.601 43.4768 114.806 42.7606 114.806 41.8874C114.806 40.9827 114.598 40.2602 114.184 39.72C113.775 39.1797 113.166 38.9095 112.356 38.9095C111.796 38.9095 111.338 39.0352 110.98 39.2865C110.622 39.5378 110.355 39.8864 110.179 40.3325C110.009 40.7785 109.924 41.2968 109.924 41.8874C109.924 42.7983 110.128 43.5239 110.537 44.0642C110.951 44.5982 111.558 44.8652 112.356 44.8652ZM124.706 47.2588C123.65 47.2588 122.746 47.0232 121.992 46.552C121.238 46.0808 120.66 45.44 120.258 44.6296C119.856 43.8192 119.655 42.9051 119.655 41.8874C119.655 40.8571 119.862 39.9367 120.277 39.1263C120.698 38.3158 121.288 37.6782 122.048 37.2133C122.808 36.7484 123.707 36.516 124.743 36.516C125.943 36.516 126.949 36.8207 127.759 37.43C128.576 38.0331 129.097 38.8593 129.323 39.9084L126.76 40.5869C126.609 40.0592 126.345 39.6477 125.968 39.3524C125.598 39.0572 125.177 38.9095 124.706 38.9095C124.165 38.9095 123.723 39.0415 123.377 39.3053C123.031 39.5629 122.777 39.9179 122.614 40.3702C122.45 40.8162 122.369 41.322 122.369 41.8874C122.369 42.7732 122.563 43.4925 122.953 44.0454C123.349 44.5919 123.933 44.8652 124.706 44.8652C125.284 44.8652 125.723 44.7333 126.025 44.4694C126.327 44.2056 126.553 43.8286 126.704 43.3386L129.323 43.8852C129.034 44.9657 128.488 45.7981 127.684 46.3824C126.879 46.9667 125.887 47.2588 124.706 47.2588ZM138.772 46.9761V42.1701C138.772 41.9376 138.759 41.6424 138.734 41.2843C138.709 40.9199 138.631 40.5555 138.499 40.1911C138.367 39.8268 138.15 39.5221 137.849 39.2771C137.553 39.032 137.132 38.9095 136.586 38.9095C136.366 38.9095 136.13 38.9441 135.879 39.0132C135.628 39.0823 135.392 39.2174 135.172 39.4184C134.952 39.6132 134.77 39.9021 134.626 40.2854C134.487 40.6686 134.418 41.1775 134.418 41.812L132.948 41.1146C132.948 40.3105 133.112 39.5566 133.438 38.853C133.765 38.1494 134.255 37.5808 134.908 37.1473C135.568 36.7138 136.397 36.4971 137.396 36.4971C138.194 36.4971 138.844 36.6322 139.347 36.9023C139.849 37.1725 140.239 37.5149 140.515 37.9295C140.798 38.3441 140.999 38.7776 141.119 39.2299C141.238 39.676 141.31 40.0843 141.335 40.455C141.36 40.8257 141.373 41.0958 141.373 41.2654V46.9761H138.772ZM131.817 46.9761V33.4062H134.098V40.3796H134.418V46.9761H131.817ZM149.177 47.2588C148.134 47.2588 147.214 47.0358 146.416 46.5897C145.624 46.1374 145.002 45.5186 144.55 44.7333C144.104 43.9417 143.881 43.037 143.881 42.0193C143.881 40.9073 144.101 39.9398 144.541 39.1169C144.98 38.2939 145.587 37.6562 146.359 37.2039C147.132 36.7453 148.021 36.516 149.026 36.516C150.094 36.516 151.002 36.7673 151.75 37.2698C152.497 37.7724 153.05 38.4792 153.408 39.3901C153.766 40.3011 153.892 41.3722 153.785 42.6036H151.25V41.6612C151.25 40.6246 151.084 39.8802 150.751 39.4278C150.424 38.9692 149.887 38.7399 149.139 38.7399C148.266 38.7399 147.622 39.0069 147.208 39.5409C146.799 40.0686 146.595 40.8508 146.595 41.8874C146.595 42.836 146.799 43.571 147.208 44.0925C147.622 44.6076 148.228 44.8652 149.026 44.8652C149.529 44.8652 149.959 44.7553 150.317 44.5354C150.675 44.3155 150.949 43.9982 151.137 43.5836L153.7 44.3186C153.317 45.2484 152.711 45.9709 151.882 46.4861C151.059 47.0012 150.157 47.2588 149.177 47.2588ZM145.803 42.6036V40.7H152.551V42.6036H145.803ZM156.541 46.9761V36.7987H158.803V39.2865L158.558 38.9661C158.69 38.6143 158.866 38.2939 159.086 38.0049C159.305 37.7159 159.576 37.4772 159.896 37.2887C160.141 37.1379 160.408 37.0217 160.697 36.94C160.986 36.8521 161.284 36.7987 161.592 36.7798C161.9 36.7547 162.208 36.761 162.516 36.7987V39.1922C162.233 39.1043 161.903 39.076 161.526 39.1074C161.156 39.1326 160.819 39.2174 160.518 39.3619C160.216 39.5001 159.962 39.6854 159.755 39.9179C159.547 40.144 159.39 40.4142 159.283 40.7283C159.177 41.0361 159.123 41.3848 159.123 41.7743V46.9761H156.541ZM174.86 47.2588C173.767 47.2588 172.806 47.0389 171.976 46.5991C171.147 46.1531 170.5 45.528 170.035 44.7239C169.57 43.9197 169.338 42.9742 169.338 41.8874V33.425L171.939 33.4062V41.8685C171.939 42.3146 172.014 42.7198 172.165 43.0842C172.316 43.4485 172.523 43.7627 172.787 44.0265C173.057 44.2904 173.368 44.4945 173.72 44.639C174.078 44.7773 174.458 44.8464 174.86 44.8464C175.275 44.8464 175.658 44.7741 176.01 44.6296C176.368 44.4851 176.679 44.2809 176.943 44.0171C177.206 43.7532 177.411 43.4391 177.555 43.0747C177.706 42.7104 177.781 42.3083 177.781 41.8685V33.4062H180.382V41.8874C180.382 42.9742 180.15 43.9197 179.685 44.7239C179.22 45.528 178.573 46.1531 177.744 46.5991C176.914 47.0389 175.953 47.2588 174.86 47.2588ZM187.618 47.2588C186.336 47.2588 185.3 46.9698 184.508 46.3918C183.723 45.8076 183.245 44.9846 183.076 43.9229L185.696 43.5271C185.802 44.0045 186.038 44.3783 186.402 44.6485C186.773 44.9186 187.241 45.0537 187.806 45.0537C188.271 45.0537 188.629 44.9657 188.881 44.7898C189.132 44.6076 189.258 44.3563 189.258 44.0359C189.258 43.8349 189.207 43.6747 189.107 43.5553C189.006 43.4297 188.78 43.3072 188.428 43.1878C188.083 43.0685 187.543 42.9114 186.808 42.7166C185.978 42.503 185.315 42.2643 184.819 42.0005C184.323 41.7366 183.965 41.4225 183.745 41.0581C183.525 40.6874 183.415 40.2414 183.415 39.72C183.415 39.0666 183.582 38.5012 183.914 38.0237C184.247 37.54 184.715 37.1693 185.319 36.9117C185.928 36.6479 186.644 36.516 187.467 36.516C188.265 36.516 188.972 36.6385 189.587 36.8835C190.203 37.1285 190.699 37.4772 191.076 37.9295C191.46 38.3818 191.695 38.9158 191.783 39.5315L189.163 40.0027C189.119 39.6257 188.956 39.3273 188.673 39.1074C188.391 38.8875 188.007 38.7588 187.524 38.7211C187.053 38.6897 186.672 38.7525 186.383 38.9095C186.101 39.0666 185.959 39.2928 185.959 39.588C185.959 39.7639 186.019 39.9116 186.138 40.0309C186.264 40.1503 186.519 40.2728 186.902 40.3985C187.291 40.5241 187.882 40.6874 188.673 40.8885C189.446 41.0895 190.065 41.3251 190.53 41.5952C191.001 41.8591 191.343 42.1795 191.557 42.5564C191.771 42.9271 191.877 43.3763 191.877 43.904C191.877 44.9469 191.5 45.7667 190.747 46.3635C189.993 46.9604 188.95 47.2588 187.618 47.2588ZM197.403 47.2588C196.675 47.2588 196.056 47.1206 195.547 46.8441C195.044 46.5614 194.661 46.1876 194.397 45.7227C194.14 45.2516 194.011 44.7333 194.011 44.1679C194.011 43.6967 194.083 43.2663 194.228 42.8768C194.372 42.4873 194.605 42.1449 194.925 41.8497C195.252 41.5481 195.688 41.2968 196.235 41.0958C196.612 40.9576 197.061 40.8351 197.583 40.7283C198.104 40.6215 198.695 40.521 199.354 40.4267C200.014 40.3262 200.739 40.2163 201.531 40.0969L200.607 40.6058C200.607 40.0027 200.463 39.5598 200.174 39.2771C199.885 38.9943 199.401 38.853 198.723 38.853C198.346 38.853 197.953 38.9441 197.545 39.1263C197.136 39.3085 196.851 39.632 196.687 40.0969L194.369 39.3619C194.627 38.52 195.11 37.8353 195.82 37.3075C196.53 36.7798 197.498 36.516 198.723 36.516C199.621 36.516 200.419 36.6542 201.116 36.9306C201.814 37.207 202.341 37.6845 202.7 38.363C202.901 38.7399 203.02 39.1169 203.058 39.4938C203.095 39.8707 203.114 40.2917 203.114 40.7565V46.9761H200.871V44.8841L201.192 45.3175C200.695 46.0023 200.158 46.4986 199.58 46.8065C199.009 47.108 198.283 47.2588 197.403 47.2588ZM197.95 45.2421C198.421 45.2421 198.817 45.1605 199.137 44.9971C199.464 44.8275 199.722 44.6359 199.91 44.4223C200.105 44.2087 200.237 44.0297 200.306 43.8852C200.438 43.6087 200.513 43.2883 200.532 42.924C200.557 42.5533 200.57 42.2455 200.57 42.0005L201.324 42.1889C200.564 42.3146 199.948 42.4214 199.477 42.5093C199.005 42.591 198.625 42.6664 198.336 42.7355C198.047 42.8046 197.793 42.88 197.573 42.9617C197.322 43.0622 197.118 43.1721 196.961 43.2915C196.81 43.4046 196.697 43.5302 196.621 43.6684C196.552 43.8066 196.518 43.9605 196.518 44.1302C196.518 44.3626 196.574 44.5637 196.687 44.7333C196.807 44.8966 196.973 45.0223 197.187 45.1102C197.4 45.1982 197.655 45.2421 197.95 45.2421ZM210.546 51.7821C209.968 51.7821 209.419 51.6878 208.897 51.4994C208.376 51.3172 207.908 51.0596 207.493 50.7266C207.085 50.4 206.752 50.0167 206.494 49.577L208.869 48.4273C209.032 48.7289 209.265 48.9582 209.566 49.1152C209.874 49.2723 210.207 49.3508 210.565 49.3508C210.948 49.3508 211.31 49.2848 211.649 49.1529C211.988 49.0273 212.258 48.8357 212.459 48.5781C212.667 48.3268 212.764 48.0127 212.751 47.6357V44.6767H213.072V36.7987H215.315V47.6734C215.315 47.9247 215.302 48.1603 215.277 48.3802C215.258 48.6063 215.22 48.8294 215.164 49.0493C215.001 49.6712 214.696 50.1832 214.25 50.5853C213.81 50.9874 213.27 51.2858 212.629 51.4805C211.988 51.6816 211.294 51.7821 210.546 51.7821ZM210.32 47.2588C209.384 47.2588 208.564 47.0232 207.861 46.552C207.157 46.0808 206.607 45.44 206.212 44.6296C205.822 43.8192 205.627 42.9051 205.627 41.8874C205.627 40.8508 205.825 39.9304 206.221 39.1263C206.623 38.3158 207.185 37.6782 207.908 37.2133C208.63 36.7484 209.478 36.516 210.452 36.516C211.42 36.516 212.233 36.7515 212.893 37.2227C213.552 37.6939 214.052 38.3347 214.391 39.1451C214.73 39.9555 214.9 40.8696 214.9 41.8874C214.9 42.9051 214.727 43.8192 214.382 44.6296C214.042 45.44 213.534 46.0808 212.855 46.552C212.177 47.0232 211.332 47.2588 210.32 47.2588ZM210.735 44.9783C211.306 44.9783 211.762 44.8495 212.101 44.5919C212.447 44.3343 212.695 43.9731 212.846 43.5082C212.996 43.0433 213.072 42.503 213.072 41.8874C213.072 41.2717 212.996 40.7314 212.846 40.2665C212.695 39.8016 212.453 39.4404 212.12 39.1828C211.793 38.9252 211.363 38.7965 210.829 38.7965C210.257 38.7965 209.786 38.9378 209.416 39.2205C209.051 39.4969 208.781 39.8707 208.605 40.3419C208.429 40.8068 208.341 41.322 208.341 41.8874C208.341 42.4591 208.426 42.9805 208.596 43.4517C208.765 43.9166 209.026 44.2872 209.378 44.5637C209.73 44.8401 210.182 44.9783 210.735 44.9783ZM223.313 47.2588C222.27 47.2588 221.349 47.0358 220.551 46.5897C219.76 46.1374 219.138 45.5186 218.686 44.7333C218.24 43.9417 218.016 43.037 218.016 42.0193C218.016 40.9073 218.236 39.9398 218.676 39.1169C219.116 38.2939 219.722 37.6562 220.495 37.2039C221.268 36.7453 222.157 36.516 223.162 36.516C224.23 36.516 225.138 36.7673 225.885 37.2698C226.633 37.7724 227.186 38.4792 227.544 39.3901C227.902 40.3011 228.027 41.3722 227.921 42.6036H225.386V41.6612C225.386 40.6246 225.219 39.8802 224.886 39.4278C224.56 38.9692 224.022 38.7399 223.275 38.7399C222.402 38.7399 221.758 39.0069 221.343 39.5409C220.935 40.0686 220.73 40.8508 220.73 41.8874C220.73 42.836 220.935 43.571 221.343 44.0925C221.758 44.6076 222.364 44.8652 223.162 44.8652C223.664 44.8652 224.095 44.7553 224.453 44.5354C224.811 44.3155 225.084 43.9982 225.273 43.5836L227.836 44.3186C227.453 45.2484 226.846 45.9709 226.017 46.4861C225.194 47.0012 224.293 47.2588 223.313 47.2588ZM219.939 42.6036V40.7H226.686V42.6036H219.939Z" fill="#1A202C"/>
<path d="M95.8942 75.1172V63.809H97.292V75.1172H95.8942ZM106.315 75.1172V70.8687C106.315 70.4656 106.279 70.0782 106.205 69.7065C106.137 69.3348 106.014 69.0024 105.836 68.7092C105.664 68.4108 105.428 68.1752 105.13 68.0024C104.836 67.8297 104.465 67.7433 104.014 67.7433C103.664 67.7433 103.344 67.8035 103.056 67.9239C102.774 68.0391 102.53 68.2171 102.326 68.4579C102.122 68.6987 101.962 69.0024 101.847 69.3688C101.737 69.7301 101.682 70.1567 101.682 70.6489L100.763 70.3662C100.763 69.5442 100.91 68.8401 101.203 68.2537C101.502 67.6621 101.918 67.2093 102.452 66.8952C102.991 66.5758 103.624 66.4161 104.352 66.4161C104.902 66.4161 105.37 66.5025 105.758 66.6753C106.145 66.848 106.467 67.0784 106.724 67.3663C106.98 67.649 107.182 67.9684 107.328 68.3244C107.475 68.6752 107.577 69.0338 107.635 69.4002C107.698 69.7615 107.729 70.1044 107.729 70.429V75.1172H106.315ZM100.269 75.1172V66.636H101.525V68.9055H101.682V75.1172H100.269ZM113.895 75.3528C113.037 75.3528 112.306 75.1617 111.704 74.7795C111.107 74.3921 110.652 73.8607 110.338 73.1854C110.024 72.51 109.861 71.7404 109.851 70.8766C109.861 69.9918 110.026 69.2144 110.346 68.5443C110.67 67.8689 111.134 67.3428 111.736 66.9658C112.338 66.5889 113.063 66.4004 113.911 66.4004C114.806 66.4004 115.576 66.6203 116.22 67.0601C116.869 67.4998 117.303 68.1019 117.523 68.8662L116.141 69.2825C115.963 68.7903 115.673 68.4082 115.269 68.1359C114.872 67.8637 114.413 67.7276 113.895 67.7276C113.314 67.7276 112.835 67.8637 112.458 68.1359C112.081 68.4029 111.801 68.7746 111.618 69.251C111.435 69.7222 111.34 70.2641 111.335 70.8766C111.346 71.819 111.563 72.5807 111.987 73.1618C112.416 73.7377 113.052 74.0256 113.895 74.0256C114.45 74.0256 114.911 73.9 115.277 73.6487C115.644 73.3922 115.921 73.0231 116.11 72.5414L117.523 72.9105C117.23 73.701 116.772 74.3057 116.149 74.7245C115.526 75.1434 114.775 75.3528 113.895 75.3528ZM119.754 75.1172V66.636H121.003V68.6856L120.799 68.4186C120.898 68.1569 121.026 67.916 121.183 67.6962C121.346 67.4763 121.526 67.2957 121.725 67.1543C121.945 66.9763 122.194 66.8402 122.471 66.746C122.749 66.6517 123.032 66.5967 123.319 66.581C123.607 66.5601 123.877 66.5784 124.128 66.636V67.9475C123.835 67.8689 123.513 67.848 123.162 67.8846C122.812 67.9213 122.487 68.0495 122.189 68.2694C121.916 68.4631 121.704 68.6987 121.553 68.9762C121.406 69.2537 121.304 69.5547 121.246 69.8793C121.189 70.1986 121.16 70.5258 121.16 70.8609V75.1172H119.754ZM129.763 75.3528C128.931 75.3528 128.203 75.1695 127.58 74.8031C126.962 74.4314 126.481 73.9157 126.135 73.256C125.79 72.5912 125.617 71.8163 125.617 70.9316C125.617 70.0049 125.787 69.2039 126.127 68.5286C126.468 67.848 126.941 67.3245 127.549 66.958C128.161 66.5863 128.879 66.4004 129.7 66.4004C130.554 66.4004 131.279 66.5967 131.876 66.9894C132.478 67.382 132.928 67.9422 133.226 68.6699C133.53 69.3976 133.661 70.2641 133.619 71.2692H132.206V70.7667C132.19 69.7248 131.978 68.9474 131.569 68.4343C131.161 67.916 130.554 67.6569 129.748 67.6569C128.884 67.6569 128.227 67.9344 127.776 68.4893C127.326 69.0442 127.101 69.84 127.101 70.8766C127.101 71.8765 127.326 72.6514 127.776 73.2011C128.227 73.7508 128.868 74.0256 129.7 74.0256C130.261 74.0256 130.748 73.8974 131.161 73.6408C131.575 73.3843 131.899 73.0152 132.135 72.5336L133.478 72.9969C133.148 73.7455 132.651 74.3267 131.986 74.7402C131.326 75.1486 130.585 75.3528 129.763 75.3528ZM126.63 71.2692V70.1463H132.897V71.2692H126.63ZM138.253 75.3528C137.62 75.3528 137.088 75.2376 136.659 75.0072C136.235 74.7717 135.913 74.4628 135.693 74.0806C135.478 73.6984 135.371 73.2796 135.371 72.8241C135.371 72.3791 135.455 71.9943 135.622 71.6697C135.795 71.3399 136.036 71.0677 136.345 70.853C136.654 70.6332 137.023 70.4604 137.452 70.3347C137.855 70.2248 138.306 70.1306 138.803 70.052C139.305 69.9683 139.813 69.8924 140.326 69.8243C140.839 69.7562 141.318 69.6908 141.763 69.628L141.261 69.9185C141.277 69.1647 141.125 68.6071 140.805 68.2459C140.491 67.8846 139.947 67.704 139.172 67.704C138.659 67.704 138.209 67.8218 137.821 68.0574C137.439 68.2877 137.169 68.6647 137.012 69.1882L135.685 68.7877C135.889 68.0443 136.285 67.4606 136.871 67.0365C137.457 66.6125 138.23 66.4004 139.188 66.4004C139.957 66.4004 140.617 66.5392 141.167 66.8166C141.722 67.0889 142.119 67.5025 142.36 68.0574C142.481 68.3192 142.557 68.6045 142.588 68.9134C142.619 69.217 142.635 69.5364 142.635 69.8714V75.1172H141.394V73.0833L141.685 73.2717C141.366 73.9576 140.918 74.4759 140.342 74.8266C139.771 75.1774 139.075 75.3528 138.253 75.3528ZM138.465 74.1827C138.968 74.1827 139.402 74.0937 139.769 73.9157C140.141 73.7325 140.439 73.4942 140.664 73.2011C140.889 72.9027 141.036 72.5781 141.104 72.2273C141.182 71.9655 141.224 71.675 141.229 71.3556C141.24 71.031 141.245 70.7824 141.245 70.6096L141.732 70.8216C141.277 70.8845 140.829 70.9447 140.389 71.0022C139.949 71.0598 139.533 71.1227 139.141 71.1907C138.748 71.2535 138.395 71.3295 138.08 71.4185C137.85 71.4917 137.633 71.586 137.429 71.7012C137.23 71.8163 137.067 71.9655 136.942 72.1488C136.821 72.3268 136.761 72.5493 136.761 72.8163C136.761 73.0466 136.819 73.2665 136.934 73.4759C137.054 73.6853 137.238 73.8555 137.484 73.9864C137.735 74.1172 138.062 74.1827 138.465 74.1827ZM148.509 75.3449C147.499 75.3449 146.669 75.125 146.02 74.6853C145.376 74.2403 144.981 73.6199 144.834 72.8241L146.263 72.5964C146.378 73.0571 146.643 73.4236 147.056 73.6958C147.47 73.9628 147.983 74.0963 148.596 74.0963C149.177 74.0963 149.632 73.9759 149.962 73.7351C150.292 73.4942 150.457 73.167 150.457 72.7535C150.457 72.5126 150.402 72.3189 150.292 72.1723C150.182 72.0205 149.954 71.8792 149.609 71.7483C149.268 71.6174 148.753 71.4603 148.062 71.2771C147.313 71.0782 146.724 70.8714 146.295 70.6567C145.865 70.4421 145.559 70.1934 145.376 69.9107C145.193 69.628 145.101 69.2851 145.101 68.882C145.101 68.3846 145.237 67.9501 145.509 67.5784C145.782 67.2014 146.161 66.9109 146.648 66.7067C147.14 66.5025 147.711 66.4004 148.36 66.4004C149.004 66.4004 149.58 66.5025 150.088 66.7067C150.595 66.9109 151.004 67.2014 151.313 67.5784C151.627 67.9501 151.813 68.3846 151.87 68.882L150.441 69.1411C150.373 68.6856 150.153 68.327 149.781 68.0652C149.415 67.8035 148.941 67.6647 148.36 67.649C147.81 67.6281 147.363 67.725 147.017 67.9396C146.677 68.1542 146.507 68.4448 146.507 68.8113C146.507 69.0155 146.569 69.1908 146.695 69.3374C146.826 69.484 147.064 69.6227 147.41 69.7536C147.76 69.8845 148.268 70.0337 148.933 70.2012C149.682 70.3897 150.271 70.5965 150.7 70.8216C151.135 71.0415 151.444 71.3033 151.627 71.6069C151.81 71.9053 151.902 72.2744 151.902 72.7142C151.902 73.5309 151.601 74.1748 150.999 74.646C150.396 75.112 149.567 75.3449 148.509 75.3449ZM157.937 75.3528C157.105 75.3528 156.377 75.1695 155.754 74.8031C155.136 74.4314 154.654 73.9157 154.309 73.256C153.963 72.5912 153.791 71.8163 153.791 70.9316C153.791 70.0049 153.961 69.2039 154.301 68.5286C154.641 67.848 155.115 67.3245 155.722 66.958C156.335 66.5863 157.052 66.4004 157.874 66.4004C158.727 66.4004 159.453 66.5967 160.049 66.9894C160.651 67.382 161.102 67.9422 161.4 68.6699C161.704 69.3976 161.835 70.2641 161.793 71.2692H160.379V70.7667C160.364 69.7248 160.151 68.9474 159.743 68.4343C159.335 67.916 158.727 67.6569 157.921 67.6569C157.057 67.6569 156.4 67.9344 155.95 68.4893C155.5 69.0442 155.275 69.84 155.275 70.8766C155.275 71.8765 155.5 72.6514 155.95 73.2011C156.4 73.7508 157.042 74.0256 157.874 74.0256C158.434 74.0256 158.921 73.8974 159.335 73.6408C159.748 73.3843 160.073 73.0152 160.309 72.5336L161.651 72.9969C161.322 73.7455 160.824 74.3267 160.159 74.7402C159.5 75.1486 158.759 75.3528 157.937 75.3528ZM154.804 71.2692V70.1463H161.07V71.2692H154.804ZM167.499 75.3528C166.708 75.3528 166.031 75.1565 165.465 74.7638C164.9 74.3659 164.463 73.8293 164.154 73.154C163.85 72.4786 163.698 71.7169 163.698 70.8687C163.698 70.0206 163.85 69.2589 164.154 68.5835C164.463 67.9082 164.9 67.3768 165.465 66.9894C166.031 66.5967 166.706 66.4004 167.491 66.4004C168.292 66.4004 168.965 66.5941 169.509 66.9815C170.054 67.369 170.465 67.9003 170.742 68.5757C171.025 69.251 171.166 70.0154 171.166 70.8687C171.166 71.7116 171.025 72.4734 170.742 73.154C170.465 73.8293 170.054 74.3659 169.509 74.7638C168.965 75.1565 168.295 75.3528 167.499 75.3528ZM167.672 74.0727C168.242 74.0727 168.711 73.9366 169.077 73.6644C169.444 73.3869 169.714 73.0074 169.886 72.5257C170.064 72.0388 170.153 71.4865 170.153 70.8687C170.153 70.2405 170.064 69.6882 169.886 69.2118C169.714 68.7301 169.447 68.3558 169.085 68.0888C168.724 67.8166 168.266 67.6805 167.711 67.6805C167.135 67.6805 166.659 67.8218 166.282 68.1045C165.91 68.3872 165.633 68.7694 165.449 69.251C165.271 69.7327 165.182 70.2719 165.182 70.8687C165.182 71.4708 165.274 72.0153 165.457 72.5022C165.64 72.9838 165.915 73.366 166.282 73.6487C166.654 73.9314 167.117 74.0727 167.672 74.0727ZM170.153 75.1172V68.8741H169.996V63.809H171.402V75.1172H170.153ZM178.003 75.1172V63.809H182.408C183.084 63.809 183.66 63.9477 184.136 64.2252C184.618 64.5026 184.984 64.8691 185.235 65.3246C185.492 65.7748 185.62 66.2617 185.62 66.7852C185.62 67.3977 185.463 67.9344 185.149 68.3951C184.835 68.8558 184.411 69.1725 183.877 69.3453L183.861 68.9605C184.589 69.1542 185.154 69.5102 185.557 70.0285C185.96 70.5468 186.162 71.1645 186.162 71.8818C186.162 72.5414 186.026 73.1121 185.754 73.5937C185.487 74.0754 185.099 74.4497 184.591 74.7167C184.089 74.9837 183.492 75.1172 182.801 75.1172H178.003ZM179.416 73.7822H182.534C182.953 73.7822 183.327 73.7063 183.657 73.5545C183.987 73.3974 184.246 73.1775 184.434 72.8948C184.628 72.6121 184.725 72.2718 184.725 71.8739C184.725 71.4917 184.639 71.1488 184.466 70.8452C184.298 70.5415 184.06 70.3007 183.751 70.1227C183.448 69.9395 183.094 69.8479 182.691 69.8479H179.416V73.7822ZM179.416 68.5286H182.393C182.728 68.5286 183.029 68.4579 183.296 68.3165C183.568 68.17 183.783 67.9658 183.94 67.704C184.102 67.4422 184.183 67.136 184.183 66.7852C184.183 66.2983 184.018 65.9005 183.688 65.5916C183.359 65.2827 182.927 65.1282 182.393 65.1282H179.416V68.5286ZM189.533 78.8866L191.174 74.4261L191.198 75.7454L187.491 66.636H188.96L191.865 73.9628H191.363L194.088 66.636H195.509L190.892 78.8866H189.533ZM204.552 75.3528C203.971 75.3528 203.429 75.2324 202.927 74.9915C202.429 74.7507 202.003 74.4209 201.647 74.0021C201.296 73.578 201.045 73.0911 200.893 72.5414L202.236 72.1802C202.33 72.5519 202.498 72.8739 202.738 73.1461C202.979 73.4131 203.259 73.6225 203.579 73.7743C203.903 73.9209 204.241 73.9942 204.592 73.9942C205.052 73.9942 205.466 73.8843 205.832 73.6644C206.204 73.4393 206.497 73.1435 206.712 72.777C206.927 72.4053 207.034 71.9996 207.034 71.5598C207.034 71.1043 206.921 70.6934 206.696 70.3269C206.476 69.9552 206.181 69.662 205.809 69.4474C205.437 69.2327 205.031 69.1254 204.592 69.1254C204.094 69.1254 203.668 69.2301 203.312 69.4395C202.961 69.6437 202.683 69.895 202.479 70.1934L201.238 69.7222L201.584 63.809H207.654V65.1361H202.259L202.88 64.555L202.589 69.2903L202.283 68.8898C202.597 68.5547 202.971 68.2956 203.406 68.1124C203.846 67.9291 204.293 67.8375 204.749 67.8375C205.45 67.8375 206.078 68.0024 206.633 68.3322C207.188 68.6568 207.628 69.1018 207.953 69.6672C208.277 70.2274 208.44 70.8583 208.44 71.5598C208.44 72.2561 208.262 72.8922 207.906 73.4681C207.55 74.0387 207.076 74.4968 206.484 74.8423C205.898 75.1826 205.254 75.3528 204.552 75.3528ZM212.202 75.1172L211.26 74.1748L221.642 63.809L222.584 64.7513L212.202 75.1172ZM220.228 75.3528C219.71 75.3528 219.236 75.2271 218.807 74.9758C218.383 74.7193 218.042 74.379 217.786 73.955C217.529 73.5257 217.401 73.0492 217.401 72.5257C217.401 72.0127 217.532 71.5415 217.794 71.1122C218.055 70.6829 218.401 70.34 218.83 70.0835C219.26 69.8269 219.725 69.6987 220.228 69.6987C220.746 69.6987 221.22 69.8269 221.649 70.0835C222.079 70.3347 222.419 70.675 222.67 71.1043C222.927 71.5284 223.055 72.0022 223.055 72.5257C223.055 73.0492 222.927 73.5257 222.67 73.955C222.419 74.379 222.079 74.7193 221.649 74.9758C221.22 75.2271 220.746 75.3528 220.228 75.3528ZM220.228 74.1199C220.516 74.1199 220.78 74.0466 221.021 73.9C221.267 73.7534 221.461 73.5597 221.602 73.3189C221.749 73.078 221.822 72.8137 221.822 72.5257C221.822 72.2378 221.749 71.9734 221.602 71.7326C221.461 71.4865 221.267 71.2928 221.021 71.1515C220.78 71.0049 220.516 70.9316 220.228 70.9316C219.94 70.9316 219.676 71.0049 219.435 71.1515C219.194 71.2928 219 71.4865 218.854 71.7326C218.707 71.9734 218.634 72.2378 218.634 72.5257C218.634 72.8137 218.707 73.078 218.854 73.3189C219 73.5597 219.194 73.7534 219.435 73.9C219.676 74.0466 219.94 74.1199 220.228 74.1199ZM213.616 69.2275C213.098 69.2275 212.624 69.1018 212.195 68.8505C211.765 68.594 211.422 68.2537 211.166 67.8297C210.914 67.4004 210.789 66.924 210.789 66.4004C210.789 65.8874 210.92 65.4162 211.181 64.9869C211.443 64.5576 211.789 64.2147 212.218 63.9582C212.647 63.7016 213.113 63.5734 213.616 63.5734C214.134 63.5734 214.605 63.7016 215.029 63.9582C215.459 64.2095 215.802 64.5497 216.058 64.979C216.315 65.4031 216.443 65.8769 216.443 66.4004C216.443 66.924 216.315 67.4004 216.058 67.8297C215.802 68.2537 215.459 68.594 215.029 68.8505C214.605 69.1018 214.134 69.2275 213.616 69.2275ZM213.616 67.9946C213.904 67.9946 214.168 67.9213 214.409 67.7747C214.655 67.6281 214.849 67.4344 214.99 67.1936C215.137 66.9527 215.21 66.6884 215.21 66.4004C215.21 66.1125 215.137 65.8481 214.99 65.6073C214.849 65.3612 214.655 65.1675 214.409 65.0262C214.168 64.8796 213.904 64.8063 213.616 64.8063C213.328 64.8063 213.064 64.8796 212.823 65.0262C212.582 65.1675 212.388 65.3612 212.242 65.6073C212.095 65.8481 212.022 66.1125 212.022 66.4004C212.022 66.6884 212.095 66.9527 212.242 67.1936C212.388 67.4344 212.582 67.6281 212.823 67.7747C213.064 67.9213 213.328 67.9946 213.616 67.9946Z" fill="#A0AEC0"/>
<path d="M364.722 64.2457V61.6071H367.712V64.2457H364.722ZM364.722 46.6771V44.0385H367.712V46.6771H364.722ZM366.239 62.3767C365.103 62.3767 364.088 62.1678 363.193 61.75C362.299 61.3249 361.57 60.7276 361.006 59.958C360.441 59.1811 360.082 58.2649 359.928 57.2095L362.897 56.7477C363.095 57.6126 363.509 58.3015 364.139 58.8146C364.777 59.3277 365.535 59.5842 366.415 59.5842C367.243 59.5842 367.928 59.39 368.471 59.0015C369.02 58.613 369.295 58.133 369.295 57.5613C369.295 57.1728 369.174 56.854 368.932 56.6048C368.698 56.3483 368.328 56.1394 367.822 55.9781L363.908 54.7688C361.651 54.0725 360.522 52.6945 360.522 50.635C360.522 49.6675 360.749 48.8283 361.204 48.1173C361.665 47.4064 362.314 46.8603 363.149 46.4792C363.992 46.0907 364.986 45.9002 366.129 45.9075C367.177 45.9222 368.108 46.1127 368.921 46.4792C369.735 46.8383 370.413 47.3624 370.955 48.0514C371.505 48.733 371.904 49.5649 372.154 50.547L369.075 51.0967C368.973 50.6276 368.782 50.2172 368.504 49.8654C368.225 49.5062 367.877 49.2277 367.459 49.0298C367.049 48.8246 366.591 48.7147 366.085 48.7C365.601 48.6854 365.161 48.755 364.766 48.9089C364.377 49.0628 364.066 49.279 363.831 49.5576C363.604 49.8287 363.49 50.1366 363.49 50.4811C363.49 50.8622 363.652 51.192 363.974 51.4705C364.297 51.7417 364.81 51.9763 365.513 52.1742L368.306 52.9657C369.706 53.3689 370.713 53.9149 371.329 54.6039C371.952 55.2928 372.264 56.2053 372.264 57.3414C372.264 58.3382 372.011 59.2141 371.505 59.969C370.999 60.7239 370.292 61.3139 369.383 61.739C368.482 62.1641 367.434 62.3767 366.239 62.3767ZM381.431 62.0469V59.5842H374.548V56.7917L379.54 46.2153H382.97L377.979 56.7917H381.431V52.8338H384.465V56.7917H385.872V59.5842H384.465V62.0469H381.431ZM393.536 62.3767C392.737 62.3767 391.986 62.2118 391.282 61.882C390.586 61.5521 389.985 61.0941 389.479 60.5077C388.973 59.9213 388.61 59.2397 388.39 58.4628L391.271 57.6932C391.366 58.067 391.535 58.3895 391.777 58.6607C392.026 58.9319 392.312 59.1444 392.634 59.2983C392.964 59.4449 393.301 59.5182 393.646 59.5182C394.1 59.5182 394.514 59.4083 394.888 59.1884C395.269 58.9685 395.57 58.6717 395.79 58.2979C396.017 57.9241 396.13 57.51 396.13 57.0555C396.13 56.6011 396.017 56.187 395.79 55.8132C395.57 55.4394 395.269 55.1426 394.888 54.9227C394.514 54.7028 394.1 54.5929 393.646 54.5929C393.089 54.5929 392.634 54.6881 392.282 54.8787C391.931 55.0619 391.667 55.2379 391.491 55.4064L388.962 54.6368L389.446 46.2153H398.087V49.0078H391.095L392.15 48.0184L391.821 53.4495L391.315 52.8338C391.711 52.5113 392.161 52.2768 392.667 52.1302C393.173 51.9836 393.646 51.9103 394.085 51.9103C395.082 51.9103 395.958 52.1338 396.713 52.5809C397.475 53.0207 398.069 53.629 398.494 54.406C398.926 55.1756 399.143 56.0587 399.143 57.0555C399.143 58.0523 398.883 58.9539 398.362 59.7601C397.842 60.559 397.156 61.1967 396.306 61.6731C395.456 62.1422 394.533 62.3767 393.536 62.3767ZM402.576 62.0469V59.0565H405.567V62.0469H402.576ZM410.241 62.0469L415.562 49.0298H408.79V46.2153H418.773V49.0298L413.474 62.0469H410.241ZM427.023 62.3767C425.953 62.3767 425 62.1605 424.165 61.728C423.337 61.2883 422.684 60.6873 422.208 59.925C421.739 59.1554 421.504 58.2796 421.504 57.2974C421.504 56.4619 421.691 55.674 422.065 54.9337C422.446 54.1934 422.992 53.5887 423.703 53.1197L423.637 54.0432C423.102 53.5228 422.681 52.9731 422.373 52.394C422.072 51.815 421.922 51.1627 421.922 50.4371C421.922 49.5209 422.138 48.722 422.571 48.0404C423.011 47.3587 423.612 46.831 424.374 46.4572C425.143 46.0761 426.027 45.8855 427.023 45.8855C428.02 45.8855 428.9 46.0761 429.662 46.4572C430.432 46.831 431.033 47.3587 431.465 48.0404C431.905 48.722 432.125 49.5209 432.125 50.4371C432.125 51.1627 431.982 51.815 431.696 52.394C431.41 52.9657 430.974 53.5228 430.388 54.0651V53.1416C431.084 53.5814 431.619 54.1751 431.993 54.9227C432.374 55.6703 432.564 56.4619 432.564 57.2974C432.564 58.2796 432.326 59.1554 431.85 59.925C431.373 60.6873 430.717 61.2883 429.882 61.728C429.046 62.1605 428.093 62.3767 427.023 62.3767ZM427.023 59.5622C427.727 59.5622 428.299 59.3716 428.738 58.9905C429.178 58.6094 429.398 58.045 429.398 57.2974C429.398 56.5571 429.178 55.9928 428.738 55.6043C428.299 55.2085 427.727 55.0106 427.023 55.0106C426.32 55.0106 425.752 55.2085 425.319 55.6043C424.887 55.9928 424.671 56.5571 424.671 57.2974C424.671 58.045 424.887 58.6094 425.319 58.9905C425.752 59.3716 426.32 59.5622 427.023 59.5622ZM427.023 52.1742C427.595 52.1742 428.061 52.0349 428.42 51.7564C428.779 51.4705 428.958 51.0308 428.958 50.4371C428.958 49.8434 428.779 49.4036 428.42 49.1178C428.061 48.8246 427.595 48.678 427.023 48.678C426.452 48.678 425.986 48.8246 425.627 49.1178C425.268 49.4036 425.088 49.8434 425.088 50.4371C425.088 51.0308 425.268 51.4705 425.627 51.7564C425.986 52.0349 426.452 52.1742 427.023 52.1742Z" fill="#1A202C"/>
<rect opacity="0.2" x="25.5322" y="101.535" width="408.353" height="9.42353" rx="4.71176" fill="#FBAD18"/>
<rect x="25.5322" y="101.535" width="245.012" height="9.42353" rx="4.71176" fill="#FBAD18"/>
<rect x="1.18764" y="1.63197" width="457.041" height="133.5" rx="18.0618" stroke="#EDF2F7" stroke-width="1.57059"/>
</svg>
