<svg width="460" height="136" viewBox="0 0 460 136" fill="none" xmlns="http://www.w3.org/2000/svg">
<rect x="25.5322" y="28.3589" width="50.2588" height="50.2588" rx="25.1294" fill="#F4F0FF"/>
<path d="M51.3524 42.7749L51.321 42.8482L48.2845 49.8949H45.3004C44.5884 49.8949 43.9078 50.0415 43.29 50.3033L45.1224 45.9266L45.1643 45.8219L45.2376 45.6544C45.2585 45.5915 45.2795 45.5287 45.3109 45.4764C46.6825 42.3038 48.2322 41.5813 51.3524 42.7749Z" stroke="#936DFF" stroke-width="1.57059" stroke-linecap="round" stroke-linejoin="round"/>
<path d="M56.9957 50.1043C56.5245 49.9577 56.0219 49.8949 55.5194 49.8949H48.2842L51.3206 42.8482L51.3521 42.7749C51.5091 42.8273 51.6557 42.9005 51.8128 42.9634L54.1268 43.9371C55.4147 44.4711 56.3151 45.0261 56.8596 45.6962C56.9643 45.8218 57.0481 45.937 57.1214 46.0731C57.2156 46.2197 57.2889 46.3663 57.3308 46.5234C57.3727 46.6176 57.4041 46.7118 57.425 46.7956C57.7077 47.6751 57.5402 48.7536 56.9957 50.1043Z" stroke="#936DFF" stroke-width="1.57059" stroke-linecap="round" stroke-linejoin="round"/>
<path d="M60.6303 55.0052V57.0469C60.6303 57.2563 60.6198 57.4657 60.6093 57.6752C60.4104 61.3294 58.3686 63.1722 54.4945 63.1722H46.3274C46.0761 63.1722 45.8249 63.1513 45.584 63.1199C42.2544 62.9 40.4744 61.12 40.2545 57.7903C40.2231 57.5495 40.2021 57.2982 40.2021 57.0469V55.0052C40.2021 52.9006 41.4796 51.0892 43.3014 50.3039C43.9297 50.0421 44.5998 49.8955 45.3118 49.8955H55.5311C56.0441 49.8955 56.5467 49.9688 57.0074 50.1049C59.0911 50.7436 60.6303 52.6912 60.6303 55.0052Z" stroke="#936DFF" stroke-width="1.57059" stroke-linecap="round" stroke-linejoin="round"/>
<path d="M45.1221 45.9268L43.2897 50.3035C41.4678 51.0888 40.1904 52.9002 40.1904 55.0048V51.9369C40.1904 48.9632 42.3055 46.4817 45.1221 45.9268Z" stroke="#936DFF" stroke-width="1.57059" stroke-linecap="round" stroke-linejoin="round"/>
<path d="M60.6277 51.9358V55.0036C60.6277 52.7001 59.099 50.7421 57.0049 50.1139C57.5494 48.7527 57.7064 47.6847 57.4446 46.7947C57.4237 46.7005 57.3923 46.6062 57.3504 46.5225C59.2979 47.5276 60.6277 49.5903 60.6277 51.9358Z" stroke="#936DFF" stroke-width="1.57059" stroke-linecap="round" stroke-linejoin="round"/>
<path d="M95.957 46.9175V33.3476H104.815V35.7412H98.5202V38.6436H103.684V41.0372H98.5202V44.5239H104.815V46.9175H95.957ZM106.571 46.9175L110.209 41.7722L106.647 36.7401H109.662L111.698 39.7556L113.695 36.7401H116.711L113.149 41.7722L116.805 46.9175H113.79L111.698 43.7889L109.587 46.9175H106.571ZM123.945 47.2002C122.933 47.2002 122.088 46.9646 121.41 46.4934C120.731 46.0222 120.219 45.3814 119.874 44.571C119.534 43.7606 119.365 42.8465 119.365 41.8288C119.365 40.811 119.534 39.897 119.874 39.0865C120.213 38.2761 120.712 37.6353 121.372 37.1641C122.032 36.693 122.845 36.4574 123.813 36.4574C124.786 36.4574 125.635 36.6898 126.357 37.1547C127.08 37.6196 127.639 38.2573 128.034 39.0677C128.437 39.8718 128.638 40.7922 128.638 41.8288C128.638 42.8465 128.44 43.7606 128.044 44.571C127.654 45.3814 127.108 46.0222 126.404 46.4934C125.701 46.9646 124.881 47.2002 123.945 47.2002ZM118.931 51.4408V36.7401H121.193V43.7135H121.513V51.4408H118.931ZM123.53 44.9197C124.083 44.9197 124.535 44.7815 124.887 44.5051C125.239 44.2286 125.5 43.858 125.669 43.3931C125.839 42.9219 125.924 42.4005 125.924 41.8288C125.924 41.2634 125.836 40.7482 125.66 40.2833C125.484 39.8121 125.211 39.4383 124.84 39.1619C124.475 38.8792 124.007 38.7379 123.436 38.7379C122.902 38.7379 122.468 38.8666 122.135 39.1242C121.809 39.3818 121.57 39.743 121.419 40.2079C121.268 40.6728 121.193 41.2131 121.193 41.8288C121.193 42.4444 121.268 42.9847 121.419 43.4496C121.57 43.9145 121.815 44.2758 122.154 44.5333C122.5 44.7909 122.958 44.9197 123.53 44.9197ZM136.07 47.2002C135.027 47.2002 134.107 46.9772 133.309 46.5311C132.517 46.0788 131.895 45.46 131.443 44.6747C130.997 43.8831 130.774 42.9784 130.774 41.9607C130.774 40.8487 130.994 39.8812 131.434 39.0583C131.873 38.2353 132.48 37.5976 133.252 37.1453C134.025 36.6867 134.914 36.4574 135.919 36.4574C136.987 36.4574 137.895 36.7087 138.643 37.2112C139.39 37.7138 139.943 38.4206 140.301 39.3315C140.659 40.2425 140.785 41.3136 140.678 42.545H138.143V41.6026C138.143 40.566 137.977 39.8216 137.644 39.3692C137.317 38.9106 136.78 38.6813 136.032 38.6813C135.159 38.6813 134.515 38.9483 134.1 39.4823C133.692 40.01 133.488 40.7922 133.488 41.8288C133.488 42.7774 133.692 43.5124 134.1 44.0339C134.515 44.549 135.121 44.8066 135.919 44.8066C136.422 44.8066 136.852 44.6967 137.21 44.4768C137.568 44.2569 137.842 43.9396 138.03 43.525L140.593 44.26C140.21 45.1898 139.604 45.9123 138.775 46.4275C137.952 46.9426 137.05 47.2002 136.07 47.2002ZM132.696 42.545V40.6414H139.444V42.545H132.696ZM150.094 46.9175V42.1115C150.094 41.879 150.081 41.5838 150.056 41.2257C150.031 40.8613 149.952 40.4969 149.821 40.1325C149.689 39.7682 149.472 39.4635 149.17 39.2185C148.875 38.9734 148.454 38.8509 147.908 38.8509C147.688 38.8509 147.452 38.8855 147.201 38.9546C146.949 39.0237 146.714 39.1588 146.494 39.3598C146.274 39.5546 146.092 39.8436 145.947 40.2268C145.809 40.61 145.74 41.1189 145.74 41.7534L144.27 41.056C144.27 40.2519 144.433 39.498 144.76 38.7944C145.087 38.0908 145.577 37.5222 146.23 37.0887C146.89 36.6553 147.719 36.4385 148.718 36.4385C149.516 36.4385 150.166 36.5736 150.669 36.8437C151.171 37.1139 151.561 37.4563 151.837 37.8709C152.12 38.2855 152.321 38.719 152.44 39.1713C152.56 39.6174 152.632 40.0257 152.657 40.3964C152.682 40.7671 152.695 41.0372 152.695 41.2068V46.9175H150.094ZM143.139 46.9175V36.7401H145.42V40.1137H145.74V46.9175H143.139ZM159.745 47.2002C158.463 47.2002 157.427 46.9112 156.635 46.3332C155.85 45.749 155.372 44.926 155.203 43.8643L157.823 43.4685C157.929 43.9459 158.165 44.3197 158.529 44.5899C158.9 44.86 159.368 44.9951 159.933 44.9951C160.398 44.9951 160.756 44.9071 161.008 44.7312C161.259 44.549 161.385 44.2977 161.385 43.9773C161.385 43.7763 161.334 43.6161 161.234 43.4967C161.133 43.3711 160.907 43.2486 160.555 43.1292C160.21 43.0099 159.67 42.8528 158.934 42.658C158.105 42.4444 157.442 42.2057 156.946 41.9419C156.45 41.678 156.092 41.3639 155.872 40.9995C155.652 40.6288 155.542 40.1828 155.542 39.6614C155.542 39.008 155.708 38.4426 156.041 37.9651C156.374 37.4814 156.842 37.1107 157.446 36.8532C158.055 36.5893 158.771 36.4574 159.594 36.4574C160.392 36.4574 161.099 36.5799 161.714 36.8249C162.33 37.0699 162.826 37.4186 163.203 37.8709C163.587 38.3232 163.822 38.8572 163.91 39.4729L161.29 39.9441C161.246 39.5671 161.083 39.2687 160.8 39.0488C160.518 38.829 160.134 38.7002 159.651 38.6625C159.179 38.6311 158.799 38.6939 158.51 38.8509C158.228 39.008 158.086 39.2342 158.086 39.5294C158.086 39.7053 158.146 39.853 158.265 39.9723C158.391 40.0917 158.645 40.2142 159.029 40.3399C159.418 40.4655 160.009 40.6288 160.8 40.8299C161.573 41.0309 162.192 41.2665 162.657 41.5366C163.128 41.8005 163.47 42.1209 163.684 42.4978C163.898 42.8685 164.004 43.3177 164.004 43.8454C164.004 44.8883 163.627 45.7081 162.874 46.305C162.12 46.9018 161.077 47.2002 159.745 47.2002ZM171.434 47.2002C170.391 47.2002 169.471 46.9772 168.673 46.5311C167.881 46.0788 167.259 45.46 166.807 44.6747C166.361 43.8831 166.138 42.9784 166.138 41.9607C166.138 40.8487 166.358 39.8812 166.798 39.0583C167.237 38.2353 167.844 37.5976 168.616 37.1453C169.389 36.6867 170.278 36.4574 171.283 36.4574C172.351 36.4574 173.259 36.7087 174.007 37.2112C174.754 37.7138 175.307 38.4206 175.665 39.3315C176.023 40.2425 176.149 41.3136 176.042 42.545H173.507V41.6026C173.507 40.566 173.341 39.8216 173.008 39.3692C172.681 38.9106 172.144 38.6813 171.396 38.6813C170.523 38.6813 169.879 38.9483 169.464 39.4823C169.056 40.01 168.852 40.7922 168.852 41.8288C168.852 42.7774 169.056 43.5124 169.464 44.0339C169.879 44.549 170.485 44.8066 171.283 44.8066C171.786 44.8066 172.216 44.6967 172.574 44.4768C172.932 44.2569 173.206 43.9396 173.394 43.525L175.957 44.26C175.574 45.1898 174.968 45.9123 174.139 46.4275C173.316 46.9426 172.414 47.2002 171.434 47.2002ZM168.06 42.545V40.6414H174.808V42.545H168.06Z" fill="#1A202C"/>
<path d="M95.8942 75.0586V63.7504H97.292V75.0586H95.8942ZM106.315 75.0586V70.8102C106.315 70.407 106.279 70.0196 106.205 69.6479C106.137 69.2762 106.014 68.9438 105.836 68.6506C105.664 68.3522 105.428 68.1166 105.13 67.9438C104.836 67.7711 104.465 67.6847 104.014 67.6847C103.664 67.6847 103.344 67.7449 103.056 67.8653C102.774 67.9805 102.53 68.1585 102.326 68.3993C102.122 68.6401 101.962 68.9438 101.847 69.3102C101.737 69.6715 101.682 70.0982 101.682 70.5903L100.763 70.3076C100.763 69.4856 100.91 68.7815 101.203 68.1951C101.502 67.6035 101.918 67.1507 102.452 66.8366C102.991 66.5172 103.624 66.3575 104.352 66.3575C104.902 66.3575 105.37 66.4439 105.758 66.6167C106.145 66.7894 106.467 67.0198 106.724 67.3077C106.98 67.5904 107.182 67.9098 107.328 68.2658C107.475 68.6166 107.577 68.9752 107.635 69.3417C107.698 69.7029 107.729 70.0458 107.729 70.3704V75.0586H106.315ZM100.269 75.0586V66.5774H101.525V68.8469H101.682V75.0586H100.269ZM113.895 75.2942C113.037 75.2942 112.306 75.1031 111.704 74.7209C111.107 74.3335 110.652 73.8021 110.338 73.1268C110.024 72.4514 109.861 71.6818 109.851 70.818C109.861 69.9332 110.026 69.1558 110.346 68.4857C110.67 67.8103 111.134 67.2842 111.736 66.9072C112.338 66.5303 113.063 66.3418 113.911 66.3418C114.806 66.3418 115.576 66.5617 116.22 67.0015C116.869 67.4412 117.303 68.0433 117.523 68.8077L116.141 69.2239C115.963 68.7317 115.673 68.3496 115.269 68.0773C114.872 67.8051 114.413 67.669 113.895 67.669C113.314 67.669 112.835 67.8051 112.458 68.0773C112.081 68.3443 111.801 68.716 111.618 69.1924C111.435 69.6636 111.34 70.2055 111.335 70.818C111.346 71.7604 111.563 72.5221 111.987 73.1032C112.416 73.6791 113.052 73.967 113.895 73.967C114.45 73.967 114.911 73.8414 115.277 73.5901C115.644 73.3336 115.921 72.9645 116.11 72.4828L117.523 72.8519C117.23 73.6424 116.772 74.2471 116.149 74.6659C115.526 75.0848 114.775 75.2942 113.895 75.2942ZM119.754 75.0586V66.5774H121.003V68.627L120.799 68.36C120.898 68.0983 121.026 67.8574 121.183 67.6376C121.346 67.4177 121.526 67.2371 121.725 67.0957C121.945 66.9177 122.194 66.7816 122.471 66.6874C122.749 66.5931 123.032 66.5382 123.319 66.5224C123.607 66.5015 123.877 66.5198 124.128 66.5774V67.8889C123.835 67.8103 123.513 67.7894 123.162 67.826C122.812 67.8627 122.487 67.9909 122.189 68.2108C121.916 68.4045 121.704 68.6401 121.553 68.9176C121.406 69.1951 121.304 69.4961 121.246 69.8207C121.189 70.14 121.16 70.4672 121.16 70.8023V75.0586H119.754ZM129.763 75.2942C128.931 75.2942 128.203 75.1109 127.58 74.7445C126.962 74.3728 126.481 73.8571 126.135 73.1974C125.79 72.5326 125.617 71.7577 125.617 70.873C125.617 69.9463 125.787 69.1453 126.127 68.47C126.468 67.7894 126.941 67.2659 127.549 66.8994C128.161 66.5277 128.879 66.3418 129.7 66.3418C130.554 66.3418 131.279 66.5382 131.876 66.9308C132.478 67.3234 132.928 67.8836 133.226 68.6113C133.53 69.339 133.661 70.2055 133.619 71.2107H132.206V70.7081C132.19 69.6662 131.978 68.8888 131.569 68.3757C131.161 67.8574 130.554 67.5983 129.748 67.5983C128.884 67.5983 128.227 67.8758 127.776 68.4307C127.326 68.9857 127.101 69.7814 127.101 70.818C127.101 71.8179 127.326 72.5928 127.776 73.1425C128.227 73.6922 128.868 73.967 129.7 73.967C130.261 73.967 130.748 73.8388 131.161 73.5822C131.575 73.3257 131.899 72.9566 132.135 72.475L133.478 72.9383C133.148 73.6869 132.651 74.2681 131.986 74.6817C131.326 75.09 130.585 75.2942 129.763 75.2942ZM126.63 71.2107V70.0877H132.897V71.2107H126.63ZM138.253 75.2942C137.62 75.2942 137.088 75.179 136.659 74.9487C136.235 74.7131 135.913 74.4042 135.693 74.022C135.478 73.6398 135.371 73.221 135.371 72.7655C135.371 72.3205 135.455 71.9357 135.622 71.6112C135.795 71.2813 136.036 71.0091 136.345 70.7944C136.654 70.5746 137.023 70.4018 137.452 70.2762C137.855 70.1662 138.306 70.072 138.803 69.9934C139.305 69.9097 139.813 69.8338 140.326 69.7657C140.839 69.6977 141.318 69.6322 141.763 69.5694L141.261 69.8599C141.277 69.1061 141.125 68.5485 140.805 68.1873C140.491 67.826 139.947 67.6454 139.172 67.6454C138.659 67.6454 138.209 67.7632 137.821 67.9988C137.439 68.2292 137.169 68.6061 137.012 69.1296L135.685 68.7291C135.889 67.9857 136.285 67.402 136.871 66.9779C137.457 66.5539 138.23 66.3418 139.188 66.3418C139.957 66.3418 140.617 66.4806 141.167 66.758C141.722 67.0303 142.119 67.4439 142.36 67.9988C142.481 68.2606 142.557 68.5459 142.588 68.8548C142.619 69.1584 142.635 69.4778 142.635 69.8128V75.0586H141.394V73.0247L141.685 73.2132C141.366 73.899 140.918 74.4173 140.342 74.768C139.771 75.1188 139.075 75.2942 138.253 75.2942ZM138.465 74.1241C138.968 74.1241 139.402 74.0351 139.769 73.8571C140.141 73.6739 140.439 73.4357 140.664 73.1425C140.889 72.8441 141.036 72.5195 141.104 72.1687C141.182 71.9069 141.224 71.6164 141.229 71.297C141.24 70.9724 141.245 70.7238 141.245 70.551L141.732 70.763C141.277 70.8259 140.829 70.8861 140.389 70.9437C139.949 71.0012 139.533 71.0641 139.141 71.1321C138.748 71.1949 138.395 71.2709 138.08 71.3599C137.85 71.4332 137.633 71.5274 137.429 71.6426C137.23 71.7577 137.067 71.9069 136.942 72.0902C136.821 72.2682 136.761 72.4907 136.761 72.7577C136.761 72.988 136.819 73.2079 136.934 73.4173C137.054 73.6267 137.238 73.7969 137.484 73.9278C137.735 74.0587 138.062 74.1241 138.465 74.1241ZM148.509 75.2863C147.499 75.2863 146.669 75.0664 146.02 74.6267C145.376 74.1817 144.981 73.5613 144.834 72.7655L146.263 72.5378C146.378 72.9985 146.643 73.365 147.056 73.6372C147.47 73.9042 147.983 74.0377 148.596 74.0377C149.177 74.0377 149.632 73.9173 149.962 73.6765C150.292 73.4357 150.457 73.1084 150.457 72.6949C150.457 72.454 150.402 72.2603 150.292 72.1137C150.182 71.9619 149.954 71.8206 149.609 71.6897C149.268 71.5588 148.753 71.4017 148.062 71.2185C147.313 71.0196 146.724 70.8128 146.295 70.5981C145.865 70.3835 145.559 70.1348 145.376 69.8521C145.193 69.5694 145.101 69.2265 145.101 68.8234C145.101 68.326 145.237 67.8915 145.509 67.5198C145.782 67.1428 146.161 66.8523 146.648 66.6481C147.14 66.4439 147.711 66.3418 148.36 66.3418C149.004 66.3418 149.58 66.4439 150.088 66.6481C150.595 66.8523 151.004 67.1428 151.313 67.5198C151.627 67.8915 151.813 68.326 151.87 68.8234L150.441 69.0825C150.373 68.627 150.153 68.2684 149.781 68.0067C149.415 67.7449 148.941 67.6062 148.36 67.5904C147.81 67.5695 147.363 67.6664 147.017 67.881C146.677 68.0957 146.507 68.3862 146.507 68.7527C146.507 68.9569 146.569 69.1322 146.695 69.2788C146.826 69.4254 147.064 69.5642 147.41 69.695C147.76 69.8259 148.268 69.9751 148.933 70.1427C149.682 70.3311 150.271 70.5379 150.7 70.763C151.135 70.9829 151.444 71.2447 151.627 71.5483C151.81 71.8467 151.902 72.2158 151.902 72.6556C151.902 73.4723 151.601 74.1162 150.999 74.5874C150.396 75.0534 149.567 75.2863 148.509 75.2863ZM157.937 75.2942C157.105 75.2942 156.377 75.1109 155.754 74.7445C155.136 74.3728 154.654 73.8571 154.309 73.1974C153.963 72.5326 153.791 71.7577 153.791 70.873C153.791 69.9463 153.961 69.1453 154.301 68.47C154.641 67.7894 155.115 67.2659 155.722 66.8994C156.335 66.5277 157.052 66.3418 157.874 66.3418C158.727 66.3418 159.453 66.5382 160.049 66.9308C160.651 67.3234 161.102 67.8836 161.4 68.6113C161.704 69.339 161.835 70.2055 161.793 71.2107H160.379V70.7081C160.364 69.6662 160.151 68.8888 159.743 68.3757C159.335 67.8574 158.727 67.5983 157.921 67.5983C157.057 67.5983 156.4 67.8758 155.95 68.4307C155.5 68.9857 155.275 69.7814 155.275 70.818C155.275 71.8179 155.5 72.5928 155.95 73.1425C156.4 73.6922 157.042 73.967 157.874 73.967C158.434 73.967 158.921 73.8388 159.335 73.5822C159.748 73.3257 160.073 72.9566 160.309 72.475L161.651 72.9383C161.322 73.6869 160.824 74.2681 160.159 74.6817C159.5 75.09 158.759 75.2942 157.937 75.2942ZM154.804 71.2107V70.0877H161.07V71.2107H154.804ZM167.499 75.2942C166.708 75.2942 166.031 75.0979 165.465 74.7052C164.9 74.3073 164.463 73.7707 164.154 73.0954C163.85 72.42 163.698 71.6583 163.698 70.8102C163.698 69.962 163.85 69.2003 164.154 68.5249C164.463 67.8496 164.9 67.3182 165.465 66.9308C166.031 66.5382 166.706 66.3418 167.491 66.3418C168.292 66.3418 168.965 66.5355 169.509 66.9229C170.054 67.3104 170.465 67.8417 170.742 68.5171C171.025 69.1924 171.166 69.9568 171.166 70.8102C171.166 71.653 171.025 72.4148 170.742 73.0954C170.465 73.7707 170.054 74.3073 169.509 74.7052C168.965 75.0979 168.295 75.2942 167.499 75.2942ZM167.672 74.0142C168.242 74.0142 168.711 73.878 169.077 73.6058C169.444 73.3283 169.714 72.9488 169.886 72.4671C170.064 71.9802 170.153 71.4279 170.153 70.8102C170.153 70.1819 170.064 69.6296 169.886 69.1532C169.714 68.6715 169.447 68.2972 169.085 68.0302C168.724 67.758 168.266 67.6219 167.711 67.6219C167.135 67.6219 166.659 67.7632 166.282 68.0459C165.91 68.3286 165.633 68.7108 165.449 69.1924C165.271 69.6741 165.182 70.2133 165.182 70.8102C165.182 71.4122 165.274 71.9567 165.457 72.4436C165.64 72.9252 165.915 73.3074 166.282 73.5901C166.654 73.8728 167.117 74.0142 167.672 74.0142ZM170.153 75.0586V68.8155H169.996V63.7504H171.402V75.0586H170.153ZM178.003 75.0586V63.7504H182.408C183.084 63.7504 183.66 63.8891 184.136 64.1666C184.618 64.444 184.984 64.8105 185.235 65.266C185.492 65.7162 185.62 66.2031 185.62 66.7266C185.62 67.3392 185.463 67.8758 185.149 68.3365C184.835 68.7972 184.411 69.1139 183.877 69.2867L183.861 68.9019C184.589 69.0956 185.154 69.4516 185.557 69.9699C185.96 70.4882 186.162 71.1059 186.162 71.8232C186.162 72.4828 186.026 73.0535 185.754 73.5351C185.487 74.0168 185.099 74.3911 184.591 74.6581C184.089 74.9251 183.492 75.0586 182.801 75.0586H178.003ZM179.416 73.7236H182.534C182.953 73.7236 183.327 73.6477 183.657 73.4959C183.987 73.3388 184.246 73.1189 184.434 72.8362C184.628 72.5535 184.725 72.2132 184.725 71.8153C184.725 71.4332 184.639 71.0902 184.466 70.7866C184.298 70.4829 184.06 70.2421 183.751 70.0641C183.448 69.8809 183.094 69.7893 182.691 69.7893H179.416V73.7236ZM179.416 68.47H182.393C182.728 68.47 183.029 68.3993 183.296 68.2579C183.568 68.1114 183.783 67.9072 183.94 67.6454C184.102 67.3837 184.183 67.0774 184.183 66.7266C184.183 66.2397 184.018 65.8419 183.688 65.533C183.359 65.2241 182.927 65.0697 182.393 65.0697H179.416V68.47ZM189.533 78.828L191.174 74.3675L191.198 75.6868L187.491 66.5774H188.96L191.865 73.9042H191.363L194.088 66.5774H195.509L190.892 78.828H189.533ZM203.178 75.0586V65.2974L201.05 66.5853V65.0225L203.178 63.7504H204.599V75.0586H203.178ZM212.032 75.2942C211.299 75.2942 210.645 75.1293 210.069 74.7994C209.498 74.4644 209.046 74.0115 208.711 73.4409C208.381 72.865 208.216 72.2106 208.216 71.4777V67.3313C208.216 66.5984 208.381 65.9439 208.711 65.3681C209.046 64.7922 209.498 64.3393 210.069 64.0095C210.645 63.6797 211.299 63.5148 212.032 63.5148C212.765 63.5148 213.42 63.6797 213.996 64.0095C214.571 64.3393 215.024 64.7922 215.354 65.3681C215.684 65.9439 215.849 66.5984 215.849 67.3313V71.4777C215.849 72.2106 215.684 72.865 215.354 73.4409C215.024 74.0115 214.571 74.4644 213.996 74.7994C213.42 75.1293 212.765 75.2942 212.032 75.2942ZM212.032 73.9513C212.477 73.9513 212.88 73.844 213.242 73.6294C213.603 73.4147 213.891 73.1268 214.105 72.7655C214.32 72.3991 214.427 71.9959 214.427 71.5562V67.2449C214.427 66.7999 214.32 66.3968 214.105 66.0356C213.891 65.6743 213.603 65.3864 213.242 65.1717C212.88 64.9571 212.477 64.8498 212.032 64.8498C211.593 64.8498 211.189 64.9571 210.823 65.1717C210.462 65.3864 210.174 65.6743 209.959 66.0356C209.744 66.3968 209.637 66.7999 209.637 67.2449V71.5562C209.637 71.9959 209.744 72.3991 209.959 72.7655C210.174 73.1268 210.462 73.4147 210.823 73.6294C211.189 73.844 211.593 73.9513 212.032 73.9513ZM219.932 75.0586L218.99 74.1162L229.371 63.7504L230.314 64.6927L219.932 75.0586ZM227.958 75.2942C227.439 75.2942 226.966 75.1685 226.536 74.9172C226.112 74.6607 225.772 74.3204 225.515 73.8964C225.259 73.4671 225.131 72.9907 225.131 72.4671C225.131 71.9541 225.262 71.4829 225.523 71.0536C225.785 70.6243 226.131 70.2814 226.56 70.0249C226.989 69.7683 227.455 69.6401 227.958 69.6401C228.476 69.6401 228.95 69.7683 229.379 70.0249C229.808 70.2762 230.149 70.6164 230.4 71.0457C230.656 71.4698 230.785 71.9436 230.785 72.4671C230.785 72.9907 230.656 73.4671 230.4 73.8964C230.149 74.3204 229.808 74.6607 229.379 74.9172C228.95 75.1685 228.476 75.2942 227.958 75.2942ZM227.958 74.0613C228.246 74.0613 228.51 73.988 228.751 73.8414C228.997 73.6948 229.191 73.5011 229.332 73.2603C229.479 73.0194 229.552 72.7551 229.552 72.4671C229.552 72.1792 229.479 71.9148 229.332 71.674C229.191 71.4279 228.997 71.2342 228.751 71.0929C228.51 70.9463 228.246 70.873 227.958 70.873C227.67 70.873 227.405 70.9463 227.165 71.0929C226.924 71.2342 226.73 71.4279 226.583 71.674C226.437 71.9148 226.364 72.1792 226.364 72.4671C226.364 72.7551 226.437 73.0194 226.583 73.2603C226.73 73.5011 226.924 73.6948 227.165 73.8414C227.405 73.988 227.67 74.0613 227.958 74.0613ZM221.346 69.1689C220.827 69.1689 220.353 69.0432 219.924 68.7919C219.495 68.5354 219.152 68.1951 218.895 67.7711C218.644 67.3418 218.518 66.8654 218.518 66.3418C218.518 65.8288 218.649 65.3576 218.911 64.9283C219.173 64.499 219.518 64.1561 219.948 63.8996C220.377 63.643 220.843 63.5148 221.346 63.5148C221.864 63.5148 222.335 63.643 222.759 63.8996C223.188 64.1509 223.531 64.4912 223.788 64.9204C224.044 65.3445 224.173 65.8183 224.173 66.3418C224.173 66.8654 224.044 67.3418 223.788 67.7711C223.531 68.1951 223.188 68.5354 222.759 68.7919C222.335 69.0432 221.864 69.1689 221.346 69.1689ZM221.346 67.936C221.633 67.936 221.898 67.8627 222.139 67.7161C222.385 67.5695 222.578 67.3758 222.72 67.135C222.866 66.8942 222.94 66.6298 222.94 66.3418C222.94 66.0539 222.866 65.7895 222.72 65.5487C222.578 65.3026 222.385 65.1089 222.139 64.9676C221.898 64.821 221.633 64.7477 221.346 64.7477C221.058 64.7477 220.793 64.821 220.552 64.9676C220.312 65.1089 220.118 65.3026 219.971 65.5487C219.825 65.7895 219.751 66.0539 219.751 66.3418C219.751 66.6298 219.825 66.8942 219.971 67.135C220.118 67.3758 220.312 67.5695 220.552 67.7161C220.793 67.8627 221.058 67.936 221.346 67.936Z" fill="#A0AEC0"/>
<path d="M344.889 64.1871V61.5485H347.879V64.1871H344.889ZM344.889 46.6185V43.9799H347.879V46.6185H344.889ZM346.406 62.3181C345.27 62.3181 344.255 62.1092 343.36 61.6914C342.466 61.2663 341.737 60.669 341.173 59.8994C340.608 59.1225 340.249 58.2063 340.095 57.1509L343.064 56.6891C343.262 57.554 343.676 58.243 344.306 58.756C344.944 59.2691 345.702 59.5256 346.582 59.5256C347.41 59.5256 348.095 59.3314 348.638 58.9429C349.187 58.5545 349.462 58.0744 349.462 57.5027C349.462 57.1142 349.341 56.7954 349.099 56.5462C348.865 56.2897 348.495 56.0808 347.989 55.9195L344.075 54.7102C341.818 54.0139 340.689 52.636 340.689 50.5764C340.689 49.6089 340.916 48.7697 341.371 48.0587C341.832 47.3478 342.481 46.8017 343.317 46.4206C344.159 46.0321 345.153 45.8416 346.296 45.8489C347.344 45.8636 348.275 46.0541 349.088 46.4206C349.902 46.7797 350.58 47.3038 351.122 47.9928C351.672 48.6744 352.072 49.5063 352.321 50.4884L349.242 51.0381C349.14 50.5691 348.949 50.1586 348.671 49.8068C348.392 49.4477 348.044 49.1691 347.626 48.9712C347.216 48.766 346.758 48.6561 346.252 48.6414C345.768 48.6268 345.328 48.6964 344.933 48.8503C344.544 49.0042 344.233 49.2204 343.998 49.499C343.771 49.7701 343.657 50.078 343.657 50.4225C343.657 50.8036 343.819 51.1334 344.141 51.4119C344.464 51.6831 344.977 51.9177 345.68 52.1156L348.473 52.9071C349.873 53.3103 350.88 53.8563 351.496 54.5453C352.119 55.2342 352.431 56.1467 352.431 57.2828C352.431 58.2796 352.178 59.1555 351.672 59.9104C351.166 60.6653 350.459 61.2553 349.55 61.6804C348.649 62.1056 347.601 62.3181 346.406 62.3181ZM361.598 61.9883V59.5256H354.715V56.7331L359.707 46.1567H363.137L358.146 56.7331H361.598V52.7752H364.632V56.7331H366.039V59.5256H364.632V61.9883H361.598ZM374.868 62.3181C373.695 62.3181 372.669 62.0726 371.79 61.5815C370.91 61.0904 370.225 60.4051 369.734 59.5256C369.243 58.6461 368.997 57.62 368.997 56.4472V51.6978C368.997 50.5251 369.243 49.499 369.734 48.6194C370.225 47.7399 370.91 47.0546 371.79 46.5635C372.669 46.0725 373.695 45.8269 374.868 45.8269C376.041 45.8269 377.067 46.0725 377.946 46.5635C378.826 47.0546 379.511 47.7399 380.002 48.6194C380.493 49.499 380.739 50.5251 380.739 51.6978V56.4472C380.739 57.62 380.493 58.6461 380.002 59.5256C379.511 60.4051 378.826 61.0904 377.946 61.5815C377.067 62.0726 376.041 62.3181 374.868 62.3181ZM374.868 59.4816C375.396 59.4816 375.872 59.357 376.297 59.1078C376.722 58.8586 377.06 58.5215 377.309 58.0964C377.558 57.6713 377.683 57.1948 377.683 56.6671V51.4559C377.683 50.9282 377.558 50.4518 377.309 50.0267C377.06 49.6016 376.722 49.2644 376.297 49.0152C375.872 48.766 375.396 48.6414 374.868 48.6414C374.34 48.6414 373.864 48.766 373.439 49.0152C373.014 49.2644 372.677 49.6016 372.427 50.0267C372.178 50.4518 372.054 50.9282 372.054 51.4559V56.6671C372.054 57.1948 372.178 57.6713 372.427 58.0964C372.677 58.5215 373.014 58.8586 373.439 59.1078C373.864 59.357 374.34 59.4816 374.868 59.4816ZM389.207 45.8489C390.255 45.8489 391.193 46.0944 392.021 46.5855C392.857 47.0766 393.517 47.7619 394 48.6414C394.484 49.5136 394.726 50.5251 394.726 51.6758V56.2713C394.726 57.5173 394.484 58.5948 394 59.5036C393.517 60.4051 392.835 61.1014 391.955 61.5925C391.076 62.0762 390.043 62.3181 388.855 62.3181C388.086 62.3181 387.353 62.2045 386.656 61.9773C385.967 61.7427 385.33 61.358 384.743 60.8229L386.876 58.69C387.14 58.9539 387.444 59.1591 387.789 59.3057C388.141 59.4523 388.496 59.5256 388.855 59.5256C389.427 59.5256 389.922 59.3937 390.339 59.1298C390.764 58.8586 391.091 58.5105 391.318 58.0854C391.552 57.6529 391.67 57.1948 391.67 56.7111V54.3584L392.175 54.9081C391.728 55.3698 391.204 55.7253 390.603 55.9745C390.002 56.2164 389.383 56.3373 388.745 56.3373C387.748 56.3373 386.869 56.1138 386.107 55.6667C385.352 55.2196 384.758 54.6076 384.326 53.8306C383.9 53.0537 383.688 52.1669 383.688 51.1701C383.688 50.1733 383.941 49.2754 384.446 48.4765C384.952 47.6703 385.623 47.0326 386.458 46.5635C387.294 46.0871 388.21 45.8489 389.207 45.8489ZM389.207 48.7074C388.753 48.7074 388.335 48.8173 387.954 49.0372C387.58 49.2571 387.279 49.5539 387.052 49.9277C386.832 50.3015 386.722 50.7156 386.722 51.1701C386.722 51.6245 386.832 52.0423 387.052 52.4234C387.272 52.7972 387.569 53.0977 387.943 53.3249C388.316 53.5448 388.731 53.6547 389.185 53.6547C389.639 53.6547 390.054 53.5448 390.427 53.3249C390.808 53.0977 391.109 52.7972 391.329 52.4234C391.556 52.0423 391.67 51.6245 391.67 51.1701C391.67 50.7303 391.56 50.3235 391.34 49.9497C391.12 49.5759 390.823 49.2754 390.449 49.0482C390.075 48.821 389.661 48.7074 389.207 48.7074ZM398.604 61.9883V58.9979H401.594V61.9883H398.604ZM411.348 62.3181C410.175 62.3181 409.149 62.0726 408.27 61.5815C407.39 61.0904 406.705 60.4051 406.214 59.5256C405.723 58.6461 405.477 57.62 405.477 56.4472V51.6978C405.477 50.5251 405.723 49.499 406.214 48.6194C406.705 47.7399 407.39 47.0546 408.27 46.5635C409.149 46.0725 410.175 45.8269 411.348 45.8269C412.521 45.8269 413.547 46.0725 414.426 46.5635C415.306 47.0546 415.991 47.7399 416.482 48.6194C416.973 49.499 417.219 50.5251 417.219 51.6978V56.4472C417.219 57.62 416.973 58.6461 416.482 59.5256C415.991 60.4051 415.306 61.0904 414.426 61.5815C413.547 62.0726 412.521 62.3181 411.348 62.3181ZM411.348 59.4816C411.876 59.4816 412.352 59.357 412.777 59.1078C413.202 58.8586 413.54 58.5215 413.789 58.0964C414.038 57.6713 414.163 57.1948 414.163 56.6671V51.4559C414.163 50.9282 414.038 50.4518 413.789 50.0267C413.54 49.6016 413.202 49.2644 412.777 49.0152C412.352 48.766 411.876 48.6414 411.348 48.6414C410.82 48.6414 410.344 48.766 409.919 49.0152C409.494 49.2644 409.157 49.6016 408.907 50.0267C408.658 50.4518 408.534 50.9282 408.534 51.4559V56.6671C408.534 57.1948 408.658 57.6713 408.907 58.0964C409.157 58.5215 409.494 58.8586 409.919 59.1078C410.344 59.357 410.82 59.4816 411.348 59.4816ZM426.479 62.3181C425.306 62.3181 424.28 62.0726 423.4 61.5815C422.521 61.0904 421.835 60.4051 421.344 59.5256C420.853 58.6461 420.608 57.62 420.608 56.4472V51.6978C420.608 50.5251 420.853 49.499 421.344 48.6194C421.835 47.7399 422.521 47.0546 423.4 46.5635C424.28 46.0725 425.306 45.8269 426.479 45.8269C427.651 45.8269 428.677 46.0725 429.557 46.5635C430.436 47.0546 431.122 47.7399 431.613 48.6194C432.104 49.499 432.349 50.5251 432.349 51.6978V56.4472C432.349 57.62 432.104 58.6461 431.613 59.5256C431.122 60.4051 430.436 61.0904 429.557 61.5815C428.677 62.0726 427.651 62.3181 426.479 62.3181ZM426.479 59.4816C427.006 59.4816 427.483 59.357 427.908 59.1078C428.333 58.8586 428.67 58.5215 428.919 58.0964C429.168 57.6713 429.293 57.1948 429.293 56.6671V51.4559C429.293 50.9282 429.168 50.4518 428.919 50.0267C428.67 49.6016 428.333 49.2644 427.908 49.0152C427.483 48.766 427.006 48.6414 426.479 48.6414C425.951 48.6414 425.474 48.766 425.049 49.0152C424.624 49.2644 424.287 49.6016 424.038 50.0267C423.789 50.4518 423.664 50.9282 423.664 51.4559V56.6671C423.664 57.1948 423.789 57.6713 424.038 58.0964C424.287 58.5215 424.624 58.8586 425.049 59.1078C425.474 59.357 425.951 59.4816 426.479 59.4816Z" fill="#1A202C"/>
<rect opacity="0.2" x="25.5322" y="101.477" width="408.353" height="9.42353" rx="4.71176" fill="#6C5FBC"/>
<rect x="25.5322" y="101.477" width="296.841" height="9.42353" rx="4.71176" fill="#6C5FBC"/>
<rect x="1.18764" y="1.57338" width="457.041" height="133.5" rx="18.0618" stroke="#EDF2F7" stroke-width="1.57059"/>
</svg>
