<svg width="60" height="23" viewBox="0 0 60 23" fill="none" xmlns="http://www.w3.org/2000/svg">
<rect x="0.915039" y="0.509277" width="58.8964" height="22.2068" rx="4.82757" fill="#F7EDD0"/>
<path d="M15.6518 7.28786V15.249H14.6124V11.6397H10.5576V15.249H9.51817V7.28786H10.5576V10.783H14.6124V7.28786H15.6518ZM23.1376 11.8795C23.1376 12.0775 23.1262 12.2869 23.1033 12.5077H18.1005C18.1386 13.1245 18.348 13.6081 18.7287 13.9583C19.1171 14.301 19.5854 14.4723 20.1336 14.4723C20.5829 14.4723 20.956 14.3695 21.253 14.1639C21.5576 13.9507 21.7708 13.669 21.8926 13.3187H23.012C22.8444 13.9203 22.5094 14.4114 22.0068 14.7921C21.5043 15.1653 20.8799 15.3518 20.1336 15.3518C19.5397 15.3518 19.0066 15.2186 18.5345 14.9521C18.07 14.6855 17.7045 14.3086 17.438 13.8213C17.1715 13.3263 17.0382 12.7552 17.0382 12.108C17.0382 11.4607 17.1677 10.8934 17.4266 10.4061C17.6855 9.91874 18.0472 9.54562 18.5117 9.28672C18.9838 9.0202 19.5244 8.88695 20.1336 8.88695C20.7276 8.88695 21.253 9.0164 21.7099 9.2753C22.1667 9.5342 22.517 9.89209 22.7607 10.349C23.012 10.7982 23.1376 11.3084 23.1376 11.8795ZM22.0639 11.6625C22.0639 11.2665 21.9764 10.9277 21.8012 10.6459C21.6261 10.3566 21.3862 10.1396 21.0816 9.99489C20.7847 9.84259 20.4534 9.76644 20.0879 9.76644C19.5625 9.76644 19.1132 9.93397 18.7401 10.269C18.3746 10.6041 18.1652 11.0686 18.1119 11.6625H22.0639ZM24.1212 12.0965C24.1212 11.4569 24.2507 10.8972 24.5096 10.4175C24.7685 9.93016 25.1226 9.55323 25.5718 9.28672C26.0287 9.0202 26.5351 8.88695 27.091 8.88695C27.6392 8.88695 28.1152 9.00498 28.5187 9.24103C28.9223 9.47709 29.2231 9.77406 29.4211 10.1319V8.98975H30.4719V15.249H29.4211V14.084C29.2155 14.4495 28.9071 14.7541 28.4959 14.9977C28.0923 15.2338 27.6202 15.3518 27.0796 15.3518C26.5237 15.3518 26.0211 15.2148 25.5718 14.9406C25.1226 14.6665 24.7685 14.282 24.5096 13.787C24.2507 13.292 24.1212 12.7286 24.1212 12.0965ZM29.4211 12.108C29.4211 11.6359 29.3259 11.2247 29.1355 10.8744C28.9452 10.5241 28.6863 10.2576 28.3588 10.0748C28.039 9.88447 27.6849 9.78929 27.2966 9.78929C26.9082 9.78929 26.5541 9.88066 26.2343 10.0634C25.9145 10.2462 25.6594 10.5127 25.469 10.863C25.2787 11.2132 25.1835 11.6244 25.1835 12.0965C25.1835 12.5763 25.2787 12.9951 25.469 13.353C25.6594 13.7032 25.9145 13.9736 26.2343 14.1639C26.5541 14.3467 26.9082 14.4381 27.2966 14.4381C27.6849 14.4381 28.039 14.3467 28.3588 14.1639C28.6863 13.9736 28.9452 13.7032 29.1355 13.353C29.3259 12.9951 29.4211 12.5801 29.4211 12.108ZM33.2678 6.79671V15.249H32.2284V6.79671H33.2678ZM36.3071 9.8464V13.5357C36.3071 13.8403 36.3719 14.0573 36.5013 14.1868C36.6308 14.3086 36.8554 14.3695 37.1752 14.3695H37.9405V15.249H37.0039C36.4252 15.249 35.9911 15.1158 35.7018 14.8493C35.4124 14.5827 35.2677 14.1449 35.2677 13.5357V9.8464H34.4568V8.98975H35.2677V7.4135H36.3071V8.98975H37.9405V9.8464H36.3071ZM42.3066 8.87553C42.7788 8.87553 43.2052 8.97832 43.5859 9.18392C43.9667 9.3819 44.2636 9.68268 44.4768 10.0863C44.6977 10.4898 44.8081 10.981 44.8081 11.5597V15.249H43.7801V11.7082C43.7801 11.0838 43.624 10.6079 43.3118 10.2804C42.9996 9.94539 42.5732 9.77787 42.0325 9.77787C41.4843 9.77787 41.0464 9.9492 40.719 10.2919C40.3992 10.6345 40.2393 11.1333 40.2393 11.7881V15.249H39.1999V6.79671H40.2393V9.88066C40.4449 9.56085 40.7266 9.31337 41.0845 9.13823C41.45 8.96309 41.8574 8.87553 42.3066 8.87553ZM51.8971 8.98975L48.1279 18.1959H47.0542L48.2878 15.1805L45.7635 8.98975H46.9171L48.8817 14.0611L50.8235 8.98975H51.8971Z" fill="#DAA31A"/>
</svg>
